<svg width="128" height="128" viewBox="0 0 128 128" fill="none" xmlns="http://www.w3.org/2000/svg">
<path d="M53 66.6C53 72.3438 48.299 77 42.5 77C36.701 77 32 72.3438 32 66.6C32 65.2208 32.271 63.9044 32.7632 62.7C33.802 60.1583 37.7854 55.8034 40.3241 53.184C41.0447 52.4405 41.4049 52.0688 41.8701 51.9144C42.2616 51.7845 42.7384 51.7845 43.1299 51.9144C43.5951 52.0688 43.9553 52.4405 44.6759 53.184C47.2146 55.8034 51.198 60.1583 52.2368 62.7C52.729 63.9044 53 65.2208 53 66.6Z" fill="#2D62A7"/>
<rect x="61" y="52" width="34" height="24" rx="2" fill="#D63B3B"/>
<path fill-rule="evenodd" clip-rule="evenodd" d="M75 52H71V62H61V66H71V76H75V66H95V62H75V52Z" fill="white"/>
</svg>
